<?xml version="1.0" standalone="no"?><!DOCTYPE svg PUBLIC "-//W3C//DTD SVG 1.1//EN" "http://www.w3.org/Graphics/SVG/1.1/DTD/svg11.dtd"><svg t="1602294087645" class="icon" viewBox="0 0 1024 1024" version="1.1" xmlns="http://www.w3.org/2000/svg" p-id="2553" xmlns:xlink="http://www.w3.org/1999/xlink" width="200" height="200"><defs><style type="text/css"></style></defs><path d="M875.708153 1024H148.328417A148.547838 148.547838 0 0 1 0 875.671583V148.291847A148.474697 148.474697 0 0 1 148.328417 0.03657h363.872719a50.75933 50.75933 0 1 1 0 101.44552H148.328417a46.882897 46.882897 0 0 0-46.882897 46.809757v727.379736a46.956037 46.956037 0 0 0 46.882897 46.882897h727.379736a46.882897 46.882897 0 0 0 46.809757-46.882897V621.436092a50.75933 50.75933 0 0 1 101.44552 0v254.235491A148.474697 148.474697 0 0 1 875.708153 1024z" fill="#ffffff" p-id="2554"></path><path d="M511.981715 714.763044a50.68619 50.68619 0 0 1-50.68619-50.68619V232.037427a83.965001 83.965001 0 0 1 83.965001-83.891861h402.271348a76.358416 76.358416 0 0 1 76.358416 76.285276v206.986893a50.75933 50.75933 0 1 1-101.44552 0V249.517946H562.667905v414.558908A50.75933 50.75933 0 0 1 511.981715 714.763044z" fill="#ffffff" p-id="2555"></path><path d="M516.077569 746.505911a62.68119 62.68119 0 0 1-43.884147-17.84622L332.276133 592.326274a50.75933 50.75933 0 1 1 70.872897-72.701403l112.050856 109.271526 104.59055-108.174423a50.75933 50.75933 0 0 1 73.140245 70.507196l-131.652441 136.040856a62.60805 62.60805 0 0 1-43.884147 19.235885z m-27.720153-89.743081z" fill="#ffffff" p-id="2556"></path></svg>