<?xml version="1.0" standalone="no"?><!DOCTYPE svg PUBLIC "-//W3C//DTD SVG 1.1//EN" "http://www.w3.org/Graphics/SVG/1.1/DTD/svg11.dtd"><svg t="1601364078198" class="icon" viewBox="0 0 1024 1024" version="1.1" xmlns="http://www.w3.org/2000/svg" p-id="2767" xmlns:xlink="http://www.w3.org/1999/xlink" width="16" height="16"><defs><style type="text/css"></style></defs><path d="M402.564185 1023.964861H148.32891A148.474905 148.474905 0 0 1 0.073997 875.635951V148.255912A148.474905 148.474905 0 0 1 148.32791 0h727.380039a148.474905 148.474905 0 0 1 148.32891 148.254912v249.848427a50.759258 50.759258 0 0 1-101.445519 0V148.254912a46.883391 46.883391 0 0 0-46.883391-46.810393H148.32891a46.883391 46.883391 0 0 0-46.810394 46.810393v727.380039a46.883391 46.883391 0 0 0 46.810394 46.883391h254.235275a50.759258 50.759258 0 1 1 0 101.445519z" p-id="2768"></path><path d="M466.561989 739.375627a50.686261 50.686261 0 0 1-35.326787-14.189513L295.19487 593.533632a62.900841 62.900841 0 0 1-1.389952-89.011945l136.406319-139.917199a50.759258 50.759258 0 0 1 72.701505 70.79957L393.202507 547.528211 501.449792 652.047624a50.759258 50.759258 0 0 1-35.25279 87.183008zM365.70145 520.686132z" p-id="2769"></path><path d="M930.858056 1021.916931H564.642623a50.759258 50.759258 0 1 1 0-101.446518h358.387702V595.217574H415.363746a50.759258 50.759258 0 0 1 0-101.446518h515.639305a93.54679 93.54679 0 0 1 93.473793 93.473792v341.199291a93.54679 93.54679 0 0 1-93.619788 93.473792z m0-426.700357z" p-id="2770"></path></svg>