<?xml version="1.0" standalone="no"?><!DOCTYPE svg PUBLIC "-//W3C//DTD SVG 1.1//EN" "http://www.w3.org/Graphics/SVG/1.1/DTD/svg11.dtd"><svg t="1600166353354" class="icon" viewBox="0 0 1097 1024" version="1.1" xmlns="http://www.w3.org/2000/svg" p-id="1077" xmlns:xlink="http://www.w3.org/1999/xlink" width="34.28125" height="32"><defs><style type="text/css"></style></defs><path d="M1036.141714 0.292571H60.928A72.192 72.192 0 0 0 0 60.562286v60.269714a72.192 72.192 0 0 0 60.928 60.269714h975.213714a72.192 72.192 0 0 0 60.928-60.269714V60.562286a72.192 72.192 0 0 0-60.928-60.269715z m0 421.668572H426.642286A72.192 72.192 0 0 0 365.714286 482.230857v60.269714a72.192 72.192 0 0 0 60.928 60.269715h609.499428a72.118857 72.118857 0 0 0 60.928-60.269715v-60.269714a72.045714 72.045714 0 0 0-60.928-60.269714z m0 421.668571H60.928a72.192 72.192 0 0 0-60.928 60.269715v60.269714a72.192 72.192 0 0 0 60.928 60.269714h975.213714a72.192 72.192 0 0 0 60.928-60.269714v-60.269714a72.192 72.192 0 0 0-60.928-60.269715zM243.785143 602.697143V421.595429c0-27.721143-39.131429-79.872-60.928-60.269715L60.928 481.792a49.590857 49.590857 0 0 0 0 60.269714L182.857143 662.528c21.942857 19.529143 60.928-32.548571 60.928-60.269714z m0 0" p-id="1078"></path></svg>