<?xml version="1.0" standalone="no"?><!DOCTYPE svg PUBLIC "-//W3C//DTD SVG 1.1//EN" "http://www.w3.org/Graphics/SVG/1.1/DTD/svg11.dtd"><svg t="1600166340233" class="icon" viewBox="0 0 1097 1024" version="1.1" xmlns="http://www.w3.org/2000/svg" p-id="947" xmlns:xlink="http://www.w3.org/1999/xlink" width="34.28125" height="32"><defs><style type="text/css"></style></defs><path d="M60.928 0.292571h975.213714a72.192 72.192 0 0 1 60.928 60.269715v60.269714a72.192 72.192 0 0 1-60.928 60.269714H60.928A72.192 72.192 0 0 1 0 120.832V60.562286A72.192 72.192 0 0 1 60.928 0.292571z m0 421.668572h609.499429a72.192 72.192 0 0 1 60.928 60.269714v60.269714a72.192 72.192 0 0 1-60.928 60.269715H60.928A72.118857 72.118857 0 0 1 0 542.500571v-60.269714a72.045714 72.045714 0 0 1 60.928-60.269714z m0 421.668571h975.213714a72.192 72.192 0 0 1 60.928 60.269715v60.269714a72.192 72.192 0 0 1-60.928 60.269714H60.928A72.192 72.192 0 0 1 0 964.169143v-60.269714a72.192 72.192 0 0 1 60.928-60.269715zM853.284571 602.697143V421.595429c0-27.721143 39.131429-79.872 60.928-60.269715l121.929143 120.466286a49.590857 49.590857 0 0 1 0 60.269714l-121.929143 120.466286c-21.942857 19.529143-60.928-32.548571-60.928-60.269714z m0 0" p-id="948"></path></svg>