<?xml version="1.0" standalone="no"?><!DOCTYPE svg PUBLIC "-//W3C//DTD SVG 1.1//EN" "http://www.w3.org/Graphics/SVG/1.1/DTD/svg11.dtd"><svg t="1600224782494" class="icon" viewBox="0 0 1024 1024" version="1.1" xmlns="http://www.w3.org/2000/svg" p-id="771" xmlns:xlink="http://www.w3.org/1999/xlink" width="32" height="32"><defs><style type="text/css"></style></defs><path d="M512.444275 1023.839842a114.816325 114.816325 0 0 1-40.222279-7.313142C-34.139938 822.362788-0.645748 490.638679 1.036274 476.597447l0.51192-315.488935a120.666839 120.666839 0 0 1 102.383984-119.350473L219.845475 23.255791a1856.00224 1856.00224 0 0 1 585.051338 0l117.449056 18.648511a120.447444 120.447444 0 0 1 102.383984 119.862393l-0.731314 318.267928c0.731314 23.255791 1.755154 337.867148-470.60067 536.199552a104.870452 104.870452 0 0 1-40.953594 7.605667z m0-958.752881a1788.794467 1788.794467 0 0 0-282.579796 22.451346l-115.840165 18.502248a55.872403 55.872403 0 0 0-47.316027 55.21422L65.976973 480.473412c-1.53576 15.650123-26.83923 300.277599 429.573945 475.354212a45.634004 45.634004 0 0 0 31.885298 0.365657c435.790116-182.828543 431.109705-462.556214 430.744048-474.403504V480.473412l0.731314-318.926111a55.72614 55.72614 0 0 0-47.316027-55.433614l-117.449056-18.648512A1795.083769 1795.083769 0 0 0 512.371144 65.086961z" p-id="772"></path><path d="M446.626 697.161801a84.247393 84.247393 0 0 1-58.505134-23.475185L226.281039 518.282354a32.543481 32.543481 0 1 1 45.048953-46.95037l161.766696 155.477394a19.59922 19.59922 0 0 0 27.497412-0.438789l327.62875-332.382291a32.543481 32.543481 0 1 1 46.365319 45.634004L506.886288 672.077725a84.393656 84.393656 0 0 1-60.260288 25.084076z" p-id="773"></path></svg>