<?xml version="1.0" standalone="no"?><!DOCTYPE svg PUBLIC "-//W3C//DTD SVG 1.1//EN" "http://www.w3.org/Graphics/SVG/1.1/DTD/svg11.dtd"><svg t="1601364028416" class="icon" viewBox="0 0 1032 1024" version="1.1" xmlns="http://www.w3.org/2000/svg" p-id="2443" width="16.125" height="16" xmlns:xlink="http://www.w3.org/1999/xlink"><defs><style type="text/css"></style></defs><path d="M538.724766 1023.89761a97.986805 97.986805 0 0 1-50.170882-13.924979l-162.901784-95.939014a98.805922 98.805922 0 0 1-48.63504-84.880943V426.35216L28.00566 166.692245A98.601143 98.601143 0 0 1 99.678349 0.002048h733.211612a98.601143 98.601143 0 0 1 69.522509 168.942768L637.01874 429.833405l0.819117 495.155894a97.884416 97.884416 0 0 1-49.761325 85.700059 99.010701 99.010701 0 0 1-49.351766 13.208252zM99.575959 51.196826V102.391604l251.775919 256.793007a98.601143 98.601143 0 0 1 27.235622 68.089055v402.800514l161.57072 93.481665-3.788414-494.848725A99.21548 99.21548 0 0 1 565.857999 358.365495L831.251728 97.476905 99.678349 102.391604z" p-id="2444"></path><path d="M973.777991 535.601817H766.23436a50.68283 50.68283 0 0 1 0-101.365661h207.543631a50.68283 50.68283 0 1 1 0 101.365661z" p-id="2445"></path><path d="M973.777991 695.022356H766.23436a51.194778 51.194778 0 0 1 0-101.365661h207.543631a51.194778 51.194778 0 1 1 0 101.365661z" p-id="2446"></path><path d="M973.777991 871.64434H766.23436a50.68283 50.68283 0 0 1 0-101.36566h207.543631a50.68283 50.68283 0 1 1 0 101.36566z" p-id="2447"></path></svg>