<?xml version="1.0" standalone="no"?><!DOCTYPE svg PUBLIC "-//W3C//DTD SVG 1.1//EN" "http://www.w3.org/Graphics/SVG/1.1/DTD/svg11.dtd"><svg t="1601451570446" class="icon" viewBox="0 0 1024 1024" version="1.1" xmlns="http://www.w3.org/2000/svg" p-id="3490" xmlns:xlink="http://www.w3.org/1999/xlink" width="16" height="16"><defs><style type="text/css"></style></defs><path d="M656.648068 728.449869L295.696497 367.498299a50.770245 50.770245 0 0 1 71.76601-71.76601l360.951571 360.951571a50.770245 50.770245 0 0 1-71.76601 71.766009z" fill="#bfbfbf" p-id="3491"></path><path d="M295.769653 728.449869a50.697089 50.697089 0 0 1 0-71.766009l360.951571-360.951571a50.770245 50.770245 0 0 1 71.76601 71.76601L367.462507 728.449869a50.623933 50.623933 0 0 1-71.692854 0z" fill="#bfbfbf" p-id="3492"></path><path d="M149.969799 874.176567a512.091811 512.091811 0 1 1 724.244133 0 512.677059 512.677059 0 0 1-724.244133 0z m652.478123-652.404967a410.624476 410.624476 0 1 0 0 580.712114 410.990256 410.990256 0 0 0 0.073156-580.712114z" fill="#bfbfbf" p-id="3493"></path></svg>