<?xml version="1.0" standalone="no"?><!DOCTYPE svg PUBLIC "-//W3C//DTD SVG 1.1//EN" "http://www.w3.org/Graphics/SVG/1.1/DTD/svg11.dtd"><svg t="1601258924475" class="icon" viewBox="0 0 1024 1024" version="1.1" xmlns="http://www.w3.org/2000/svg" p-id="5141" xmlns:xlink="http://www.w3.org/1999/xlink" width="32" height="32"><defs><style type="text/css"></style></defs><path d="M875.291161 1023.707554H148.343281a148.416393 148.416393 0 0 1-148.270169-148.197058V148.489504A148.489504 148.489504 0 0 1 148.343281 0.146223h363.802942a50.739397 50.739397 0 0 1 0 101.405683H148.343281a47.01071 47.01071 0 0 0-46.864486 46.937598v727.020992a46.937598 46.937598 0 0 0 46.864486 46.864486h727.020991a47.01071 47.01071 0 0 0 46.937599-46.864486V621.594174a50.666286 50.666286 0 1 1 101.332571 0v254.135656a148.343281 148.343281 0 0 1-148.343281 147.977724z"  p-id="5142"></path><path d="M498.839926 729.287448a84.151364 84.151364 0 0 1-60.024561-25.296587l-184.460374-189.358846a50.739397 50.739397 0 0 1 72.672854-70.771955l171.665858 176.198772 373.746109-392.755105a50.739397 50.739397 0 1 1 73.477081 69.967728L559.52249 703.332857a84.663144 84.663144 0 0 1-60.243895 25.954591z" p-id="5143"></path></svg>