<?xml version="1.0" standalone="no"?><!DOCTYPE svg PUBLIC "-//W3C//DTD SVG 1.1//EN" "http://www.w3.org/Graphics/SVG/1.1/DTD/svg11.dtd"><svg t="1600329349500" class="icon" viewBox="0 0 1027 1024" version="1.1" xmlns="http://www.w3.org/2000/svg" p-id="835" xmlns:xlink="http://www.w3.org/1999/xlink" width="32.09375" height="32"><defs><style type="text/css"></style></defs><path d="M402.294342 365.695202a34.570169 34.570169 0 0 0-36.618772 36.618772v365.67557a36.533414 36.533414 0 0 0 73.152185 0V402.313974a34.143377 34.143377 0 0 0-36.533413-36.618772z m0 0" p-id="836"></path><path d="M987.426468 146.238645h-256.075329v-36.533413A107.722355 107.722355 0 0 0 621.66554 0.019632H402.208983a107.722355 107.722355 0 0 0-109.685599 109.6856v36.533413h-256.075329a36.618772 36.618772 0 0 0 0 73.152186h73.152186v694.903084a107.722355 107.722355 0 0 0 109.770957 109.685599h585.132127a107.722355 107.722355 0 0 0 109.685599-109.685599V219.390831h73.152186a36.618772 36.618772 0 1 0 0-73.152186z m-621.750898-36.533413a34.655528 34.655528 0 0 1 36.618772-36.618772h219.456556a34.143377 34.143377 0 0 1 36.533414 36.618772v36.533413H365.67557z m475.446527 804.588683a34.143377 34.143377 0 0 1-36.533414 36.533413H219.456557a34.143377 34.143377 0 0 1-36.618772-36.533413V219.390831h658.284312z m0 0" p-id="837"></path><path d="M621.750898 365.695202a34.570169 34.570169 0 0 0-36.618772 36.618772v365.67557a36.533414 36.533414 0 0 0 73.152186 0V402.313974a34.143377 34.143377 0 0 0-36.533414-36.618772z m0 0" p-id="838"></path></svg>