<?xml version="1.0" standalone="no"?><!DOCTYPE svg PUBLIC "-//W3C//DTD SVG 1.1//EN" "http://www.w3.org/Graphics/SVG/1.1/DTD/svg11.dtd"><svg t="1601258811759" class="icon" viewBox="0 0 1024 1024" version="1.1" xmlns="http://www.w3.org/2000/svg" p-id="4861" xmlns:xlink="http://www.w3.org/1999/xlink" width="32" height="32"><defs><style type="text/css"></style></defs><path d="M887.790736 1024H136.213653A137.235605 137.235605 0 0 1 0.002195 886.032862V679.447921a56.84012 56.84012 0 1 1 113.753393 0v206.292328a23.409058 23.409058 0 0 0 22.458065 24.140591h751.577083a23.409058 23.409058 0 0 0 22.531219-24.140591v-206.292328a56.913273 56.913273 0 1 1 113.826546 0v206.292328a137.308758 137.308758 0 0 1-136.357765 138.259751z"  p-id="4862"></path><path d="M251.649573 358.304901a56.84012 56.84012 0 0 1-39.7954-97.513359L451.358103 26.700957a93.416774 93.416774 0 0 1 131.675953 1.243607l229.993999 234.090584a56.913273 56.913273 0 0 1-81.127018 79.810258l-215.582797-219.459922L291.518125 342.35748a56.766967 56.766967 0 0 1-39.868552 15.947421z"  p-id="4863"></path><path d="M512.075348 716.975568a56.84012 56.84012 0 0 1-56.913273-56.84012v-576.448064a56.84012 56.84012 0 1 1 113.753393 0v576.448064A56.766967 56.766967 0 0 1 512.075348 716.975568z"  p-id="4864"></path></svg>