<?xml version="1.0" standalone="no"?><!DOCTYPE svg PUBLIC "-//W3C//DTD SVG 1.1//EN" "http://www.w3.org/Graphics/SVG/1.1/DTD/svg11.dtd"><svg t="1600329361916" class="icon" viewBox="0 0 1024 1024" version="1.1" xmlns="http://www.w3.org/2000/svg" p-id="967" xmlns:xlink="http://www.w3.org/1999/xlink" width="32" height="32"><defs><style type="text/css"></style></defs><path d="M88.234593 864.938799a45.482629 45.482629 0 0 1-42.666631-60.15995l113.407906-317.354402L622.591481 23.211501A78.762601 78.762601 0 0 1 677.972768 0.000853a72.362606 72.362606 0 0 1 51.711957 21.247983l156.15987 156.415869a73.813272 73.813272 0 0 1 21.247982 54.527955 78.506601 78.506601 0 0 1-23.125314 52.650623L402.004998 760.917553l-298.666417 101.717248a44.885296 44.885296 0 0 1-15.103988 2.303998z m-9.215992-73.642605H78.506601z m137.557219-255.999787l-80.639933 236.20247 235.007804-80.127933 459.690283-460.799616-153.599872-156.245203z" p-id="968"></path><path d="M549.204876 204.971349l164.351863 164.607863" p-id="969"></path><path d="M713.642072 407.125847a37.375969 37.375969 0 0 1-26.538645-10.922657l-164.351863-164.693196a37.546635 37.546635 0 0 1 53.077289-53.077289L740.26605 343.040567a37.546635 37.546635 0 0 1-26.623978 64.08528z" p-id="970"></path><path d="M242.517131 500.736436l164.351863 164.607863" p-id="971"></path><path d="M406.868994 702.805601a37.375969 37.375969 0 0 1-26.538644-11.007991L215.893153 527.189747a37.546635 37.546635 0 0 1 53.162623-53.077289l164.351863 164.607863a37.546635 37.546635 0 0 1-26.538645 64.08528z" p-id="972"></path><path d="M986.452511 986.453365H37.546635" p-id="973"></path><path d="M986.708511 1024H37.802635a37.546635 37.546635 0 0 1 0-75.093271h948.905876a37.546635 37.546635 0 0 1 0 75.093271z" p-id="974"></path></svg>