<?xml version="1.0" standalone="no"?><!DOCTYPE svg PUBLIC "-//W3C//DTD SVG 1.1//EN" "http://www.w3.org/Graphics/SVG/1.1/DTD/svg11.dtd"><svg t="1601258868022" class="icon" viewBox="0 0 1024 1024" version="1.1" xmlns="http://www.w3.org/2000/svg" p-id="5001" xmlns:xlink="http://www.w3.org/1999/xlink" width="32" height="32"><defs><style type="text/css"></style></defs><path d="M873.996139 1024H148.008175A149.796611 149.796611 0 0 1 0.036571 872.743383V640.675435a50.662207 50.662207 0 1 1 101.251414 0v232.067948a48.472198 48.472198 0 0 0 46.72019 50.005204h725.987964a48.545198 48.545198 0 0 0 46.793191-50.005204V640.675435a50.662207 50.662207 0 1 1 101.251413 0v232.067948A149.869612 149.869612 0 0 1 873.996139 1024z" p-id="5002"></path><path d="M498.628607 638.996428a50.589207 50.589207 0 0 1-50.589207-50.589206V52.658035a50.662207 50.662207 0 1 1 101.251414 0v535.749187a50.589207 50.589207 0 0 1-50.662207 50.589206z"  p-id="5003"></path><path d="M499.35861 718.858754a71.759293 71.759293 0 0 1-50.662207-20.878085l-227.83393-227.030927a50.662207 50.662207 0 0 1 71.540292-71.759292l206.882844 206.225841 205.276838-206.079841a50.662207 50.662207 0 1 1 71.759293 71.540292l-226.300924 226.884926a72.051294 72.051294 0 0 1-50.662206 21.097086z"  p-id="5004"></path></svg>