<?xml version="1.0" standalone="no"?><!DOCTYPE svg PUBLIC "-//W3C//DTD SVG 1.1//EN" "http://www.w3.org/Graphics/SVG/1.1/DTD/svg11.dtd"><svg t="1601198405520" class="icon" viewBox="0 0 1024 1024" version="1.1" xmlns="http://www.w3.org/2000/svg" p-id="2483" xmlns:xlink="http://www.w3.org/1999/xlink" width="32" height="32"><defs><style type="text/css"></style></defs><path d="M766.976 562.688H256.585143a50.761143 50.761143 0 0 1 0-101.449143h510.390857a50.761143 50.761143 0 1 1 0 101.449143z" p-id="2484"></path><path d="M512 817.883429a50.761143 50.761143 0 0 1-50.761143-50.688V256.731429a50.761143 50.761143 0 0 1 101.449143 0v510.464a50.688 50.688 0 0 1-50.688 50.688z"  p-id="2485"></path><path d="M512 1024a512 512 0 1 1 512-512 512.585143 512.585143 0 0 1-512 512zM512 101.449143A410.550857 410.550857 0 1 0 922.550857 512 410.989714 410.989714 0 0 0 512 101.449143z"  p-id="2486"></path></svg>