<?xml version="1.0" standalone="no"?><!DOCTYPE svg PUBLIC "-//W3C//DTD SVG 1.1//EN" "http://www.w3.org/Graphics/SVG/1.1/DTD/svg11.dtd"><svg t="1601364057245" class="icon" viewBox="0 0 1024 1024" version="1.1" xmlns="http://www.w3.org/2000/svg" p-id="2628" xmlns:xlink="http://www.w3.org/1999/xlink" width="16" height="16"><defs><style type="text/css"></style></defs><path d="M731.9552 0a73.1136 73.1136 0 0 1 73.216 73.216v108.9536h145.6128a73.216 73.216 0 0 1 73.216 73.216v695.3984a73.1136 73.1136 0 0 1-73.216 73.216H291.9424a73.1136 73.1136 0 0 1-73.1136-73.216v-72.3968H73.216A73.1136 73.1136 0 0 1 0 805.1712V73.216A73.1136 73.1136 0 0 1 73.216 0z m204.288 270.0288H306.688v666.112h629.4528zM717.312 87.8592H87.8592V790.528h130.9696V255.3856a73.216 73.216 0 0 1 73.1136-73.216h425.3696z m0 0" p-id="2629"></path><path d="M631.808 368.2304a43.9296 43.9296 0 0 1 43.4176 36.7616l0.512 7.168V560.128h147.7632a43.9296 43.9296 0 0 1 7.0656 87.3472l-7.0656 0.6144H675.328v147.968a43.9296 43.9296 0 0 1-87.2448 7.0656l-0.6144-7.0656V647.9872H439.6032a43.9296 43.9296 0 0 1-7.168-87.2448l7.168-0.512h148.3776V412.16a43.9296 43.9296 0 0 1 43.9296-43.9296z m0 0" p-id="2630"></path></svg>